<?xml version="1.0" encoding="UTF-8"?>
<svg id="_x31_" xmlns="http://www.w3.org/2000/svg" version="1.1" viewBox="0 0 950 950">
  <!-- Generator: Adobe Illustrator 29.8.3, SVG Export Plug-In . SVG Version: 2.1.1 Build 3)  -->
  <defs>
    <style>
      .st0 {
        fill: #001d37;
      }

      .st1 {
        fill: #01b5f2;
      }
    </style>
  </defs>
  <rect class="st0" x="0" y=".43" width="950" height="950" rx="51.74" ry="51.74"/>
  <g>
    <path class="st1" d="M311.02,210.85c35.92-16.61,77.3-25.04,123.01-25.04,54.74,0,103.03,11.56,143.52,34.35,40.76,22.95,71.61,53.86,91.71,91.86l6.08,11.49-128.05,91.09,10.83,29.86,166.07-125.23-12.15-24.36c-21.45-43-54.27-77.9-97.56-103.74-42.75-25.5-93.48-38.43-150.8-38.43-47.89,0-91.37,9.42-129.24,27.99-37.4,18.35-69.76,42.76-96.17,72.55-5.85,6.6-11.36,13.44-16.6,20.46,24.71-25.66,54.72-46.82,89.34-62.84Z"/>
    <path class="st1" d="M554.5,510.01l-9.65,27.29,135.23,80.8-4.85,11.82c-8.91,21.7-22.54,41.39-40.5,58.53-17.5,16.69-37.7,30.89-60.02,42.2-22.1,11.17-46.08,19.8-71.28,25.63-25.18,5.83-50.06,8.78-73.96,8.78-42.27,0-81.54-8.58-116.73-25.51-32.77-15.77-61.64-36.69-86.02-62.14,4.48,5.96,9.09,11.81,13.96,17.46,26.62,30.9,58.68,56.03,95.3,74.69,37.21,18.98,78.64,28.6,123.16,28.6,25.02,0,51.02-3.26,77.3-9.71,26.37-6.48,51.47-16.05,74.64-28.48,23.62-12.67,45.02-28.61,63.57-47.36,19.48-19.7,34.29-42.4,43.99-67.46l9.71-25.05-173.83-110.09Z"/>
    <path class="st1" d="M430.98,347.53c-18.78,0-35.03,3.63-48.28,10.81-13.5,7.29-24.69,16.9-33.27,28.57-8.82,11.99-15.49,25.79-19.81,41.05-4.43,15.62-6.69,31.34-6.69,46.71,0,17.21,2.58,33.91,7.68,49.62,5.01,15.5,12.35,29.3,21.85,41.04,9.32,11.54,20.91,20.89,34.49,27.78,13.34,6.78,28.67,10.21,45.57,10.21,9.09,0,18.58-1.04,28.19-3.1,6.8-1.46,13.5-3.68,20.01-6.59-6.32,1.08-12.53,1.64-18.53,1.64-14.75,0-27.45-2.99-38.85-9.14-11.86-6.38-21.55-14.65-29.67-25.3-8.35-10.94-14.83-23.88-19.28-38.47-4.61-15.09-6.95-31.15-6.95-47.75,0-14.83,2.05-30.04,6.12-45.22,3.84-14.34,9.72-27.3,17.49-38.48,7.38-10.63,16.66-19.06,28.39-25.78,11.06-6.35,24.93-9.56,41.22-9.56,7.15,0,14.73.72,22.55,2.06-7.54-3.34-15.34-5.83-23.26-7.32-10.04-1.85-19.79-2.79-28.97-2.79Z"/>
    <path class="st1" d="M282.33,255.72c29.36-13.58,63.75-20.46,102.25-20.46,46.13,0,86.26,9.42,119.27,27.99,22.95,12.92,41.42,28.32,55.86,46.65l-56.02,39.85c-1.96-2.37-3.98-4.64-6.09-6.81-11.09-11.42-23.6-20.65-37.21-27.47-13.09-6.52-26.82-11.14-40.84-13.75-13.05-2.43-25.83-3.64-38.02-3.64-27.1,0-51.26,5.65-71.81,16.76-19.95,10.79-36.63,25.17-49.57,42.75-12.35,16.79-21.63,35.92-27.57,56.88-5.68,20.01-8.56,40.28-8.56,60.2,0,22.4,3.39,44.22,10.08,64.87,6.87,21.26,17.11,40.4,30.43,56.88,13.72,16.99,30.73,30.72,50.57,40.79,20.31,10.34,43.18,15.58,67.96,15.58,12.56,0,25.53-1.41,38.55-4.2,13.82-2.97,27.3-7.94,40.06-14.82,13.16-7.09,25.11-16.29,35.53-27.37,2.06-2.2,4.04-4.49,5.95-6.86l62.26,37.19c-4.17,5.53-8.92,10.82-14.27,15.93-14,13.34-30.22,24.74-48.23,33.86-18.54,9.38-38.77,16.64-60.1,21.59-21.52,4.98-42.64,7.5-62.8,7.5-34.79,0-66.85-6.93-95.29-20.62-19.78-9.51-37.8-21.26-53.94-34.99.73.81,1.4,1.65,2.13,2.44,24.17,26.47,52.92,47.7,86.26,63.74,33.32,16.03,70.09,24.04,110.3,24.04,22.9,0,46.43-2.8,70.6-8.39,24.17-5.59,46.81-13.74,67.93-24.43,21.11-10.68,39.95-23.91,56.48-39.69,16.53-15.77,28.88-33.59,37.02-53.43l-121.37-72.52c-4.58,12.21-10.82,22.51-18.7,30.92-7.9,8.39-16.79,15.26-26.71,20.6-9.93,5.34-20.23,9.17-30.92,11.45-10.68,2.28-21.12,3.43-31.29,3.43-19.35,0-36.77-3.93-52.28-11.83-15.53-7.88-28.63-18.44-39.31-31.67-10.69-13.23-18.83-28.49-24.43-45.8-5.6-17.29-8.39-35.36-8.39-54.2,0-16.79,2.41-33.71,7.25-50.76,4.84-17.05,12.22-32.32,22.14-45.8,9.92-13.48,22.63-24.43,38.17-32.82,15.52-8.4,33.96-12.59,55.33-12.59,10.18,0,20.73,1.02,31.68,3.05,10.94,2.04,21.49,5.6,31.68,10.68,10.17,5.09,19.46,11.96,27.86,20.61,8.39,8.65,15.14,19.6,20.23,32.82l113.73-80.91c-18.84-35.61-47.46-64.24-85.88-85.88-38.43-21.62-83.84-32.44-136.25-32.44-43.77,0-82.7,7.89-116.78,23.66-34.1,15.77-63.11,36.38-87.02,61.83-1.77,1.88-3.44,3.81-5.15,5.73,16.76-14.14,35.9-26.28,57.23-36.15Z"/>
  </g>
</svg>